<?xml version="1.0" encoding="UTF-8"?>
<!-- Generator: visioncortex VTracer 0.6.12 -->
<svg width="512" height="512" version="1.1" xmlns="http://www.w3.org/2000/svg">
 <path transform="translate(192)" d="m0 0h128v96h32v-32h32v-32h96v96h-32v32h-32v32h96v128h-96v32h32v32h32v96h-96v-32h-32v-32h-32v96h-128v-96h-32v32h-32v32h-96v-96h32v-32h32v-32h-96v-128h96v-32h-32v-32h-32v-96h96v32h32v32h32v-96z" fill="#4D65B4"/>
 <path transform="translate(224,160)" d="m0 0h64v64h64v32h32v-32h96v64h-96v64h64v32h32v96h-96v-32h-32v-64h-64v64h-64v-96h64v-32h-64v-32h-32v-32h-32v-32h64v-64z" fill="#4D65B4"/>
 <path transform="translate(192)" d="m0 0h128v96h32v-32h32v-32h96v96h-32v32h-32v32h96v128h-96v32h-32v-64h96v-64h-96v32h-32v-32h-64v-192h-64v96h-64v-32h32v-96z" fill="#4D65B4"/>
 <path transform="translate(32,32)" d="m0 0h96v32h32v64h64v-96h64v128h-64v64h-64v32h-32v-96h-64v-32h-32v-96z" fill="#4D65B4"/>
 <path transform="translate(224,160)" d="m0 0h64v64h64v32h-32v32h-32v32h-64v-32h-32v-32h-32v-32h64v-64z" fill="#fff"/>
 <path transform="translate(160,384)" d="m0 0h64v64h64v-64h64v32h-32v96h-128v-96h-32v-32z" fill="#3E3546"/>
 <path transform="translate(384,160)" d="m0 0h32v32h96v128h-96v32h-32v-64h96v-64h-96v-64z" fill="#3E3546"/>
 <path transform="translate(96,160)" d="m0 0h32v64h-96v64h96v64h-32v-32h-96v-128h96v-32z" fill="#3E3546"/>
 <path transform="translate(192)" d="m0 0h128v96h32v32h-64v-96h-64v96h-64v-32h32v-96z" fill="#3E3546"/>
 <path transform="translate(448,384)" d="m0 0h32v96h-96v-32h-32v-32h96v-32z" fill="#3E3546"/>
 <path transform="translate(32,384)" d="m0 0h32v32h96v32h-32v32h-96v-96z" fill="#3E3546"/>
 <path transform="translate(224,352)" d="m0 0h64v96h-64v-96z" fill="#4D65B4"/>
 <path transform="translate(224,32)" d="m0 0h64v96h-64v-96z" fill="#4D65B4"/>
 <path transform="translate(384,32)" d="m0 0h96v96h-32v-64h-64v-32z" fill="#3E3546"/>
 <path transform="translate(32,32)" d="m0 0h96v32h-64v64h-32v-96z" fill="#3E3546"/>
 <path transform="translate(352,64)" d="m0 0h96v32h-64v32h-32v-64z" fill="#4D9BE6"/>
 <path transform="translate(64,64)" d="m0 0h96v64h-32v-32h-64v-32z" fill="#4D9BE6"/>
 <path transform="translate(352,416)" d="m0 0h96v32h-96v-32z" fill="#484A77"/>
 <path transform="translate(64,416)" d="m0 0h96v32h-96v-32z" fill="#484A77"/>
 <path transform="translate(384,224)" d="m0 0h96v32h-96v-32z" fill="#4D9BE6"/>
 <path transform="translate(32,224)" d="m0 0h96v32h-96v-32z" fill="#4D9BE6"/>
 <path transform="translate(288,160)" d="m0 0h32v32h32v32h-64v-64z" fill="#3E3546"/>
 <path transform="translate(192,160)" d="m0 0h32v64h-64v-32h32v-32z" fill="#3E3546"/>
 <path transform="translate(224,448)" d="m0 0h64v32h-64v-32z" fill="#484A77"/>
 <path transform="translate(288,352)" d="m0 0h64v32h-64v-32z" fill="#484A77"/>
 <path transform="translate(224,352)" d="m0 0h64v32h-64v-32z" fill="#4D9BE6"/>
 <path transform="translate(160,352)" d="m0 0h64v32h-64v-32z" fill="#484A77"/>
 <path transform="translate(224,320)" d="m0 0h64v32h-64v-32z" fill="#3E3546"/>
 <path transform="translate(288,288)" d="m0 0h64v32h-64v-32z" fill="#4D9BE6"/>
 <path transform="translate(224,128)" d="m0 0h64v32h-64v-32z" fill="#3E3546"/>
 <path transform="translate(224,32)" d="m0 0h64v32h-64v-32z" fill="#4D9BE6"/>
 <path transform="translate(352,416)" d="m0 0h32v32h-32v-32z" fill="#3E3546"/>
 <path transform="translate(128,416)" d="m0 0h32v32h-32v-32z" fill="#3E3546"/>
 <path transform="translate(352,384)" d="m0 0h32v32h-32v-32z" fill="#484A77"/>
 <path transform="translate(128,384)" d="m0 0h32v32h-32v-32z" fill="#484A77"/>
 <path transform="translate(416,352)" d="m0 0h32v32h-32v-32z" fill="#3E3546"/>
 <path transform="translate(64,352)" d="m0 0h32v32h-32v-32z" fill="#3E3546"/>
 <path transform="translate(288,320)" d="m0 0h32v32h-32v-32z" fill="#4D9BE6"/>
 <path transform="translate(192,320)" d="m0 0h32v32h-32v-32z" fill="#4D9BE6"/>
 <path transform="translate(288,288)" d="m0 0h32v32h-32v-32z" fill="#3E3546"/>
 <path transform="translate(192,288)" d="m0 0h32v32h-32v-32z" fill="#3E3546"/>
 <path transform="translate(160,288)" d="m0 0h32v32h-32v-32z" fill="#4D9BE6"/>
 <path transform="translate(320,256)" d="m0 0h32v32h-32v-32z" fill="#3E3546"/>
 <path transform="translate(160,256)" d="m0 0h32v32h-32v-32z" fill="#3E3546"/>
 <path transform="translate(352,224)" d="m0 0h32v32h-32v-32z" fill="#3E3546"/>
 <path transform="translate(128,224)" d="m0 0h32v32h-32v-32z" fill="#3E3546"/>
 <path transform="translate(416,128)" d="m0 0h32v32h-32v-32z" fill="#3E3546"/>
 <path transform="translate(64,128)" d="m0 0h32v32h-32v-32z" fill="#3E3546"/>
 <path transform="translate(352,96)" d="m0 0h32v32h-32v-32z" fill="#4D9BE6"/>
 <path transform="translate(128,96)" d="m0 0h32v32h-32v-32z" fill="#4D9BE6"/>
 <path transform="translate(352,64)" d="m0 0h32v32h-32v-32z" fill="#3E3546"/>
 <path transform="translate(128,64)" d="m0 0h32v32h-32v-32z" fill="#3E3546"/>
</svg>
