<?xml version="1.0" encoding="UTF-8"?>
<!-- Generator: visioncortex VTracer -->
<svg id="svg" version="1.1" xmlns="http://www.w3.org/2000/svg" style="display: block;" viewBox="0 0 512 512"><path d="M0,0 L384,0 L384,32 L416,32 L416,64 L448,64 L448,448 L416,448 L416,480 L384,480 L384,512 L0,512 L0,480 L-32,480 L-32,448 L-64,448 L-64,64 L-32,64 L-32,32 L0,32 Z " transform="translate(64,0)" style="fill: rgb(11, 138, 143); --darkreader-inline-fill: var(--darkreader-text-0b8a8f, #6ceff4);" data-darkreader-inline-fill=""/><path d="M0,0 L384,0 L384,32 L0,32 Z M-32,32 L0,32 L0,64 L-32,64 Z M384,32 L416,32 L416,64 L384,64 Z M-64,64 L-32,64 L-32,416 L0,416 L0,448 L384,448 L384,416 L416,416 L416,64 L448,64 L448,448 L416,448 L416,480 L384,480 L384,512 L0,512 L0,480 L-32,480 L-32,448 L-64,448 Z " transform="translate(64,0)" style="fill: rgb(62, 53, 70); --darkreader-inline-fill: var(--darkreader-text-3e3546, #c1bcb4);" data-darkreader-inline-fill=""/><path d="M0,0 L96,0 L96,32 L0,32 Z M224,0 L320,0 L320,32 L224,32 Z M-32,32 L0,32 L0,64 L-32,64 Z M96,32 L128,32 L128,64 L96,64 Z M192,32 L224,32 L224,64 L192,64 Z M320,32 L352,32 L352,64 L320,64 Z M-64,64 L-32,64 L-32,160 L-64,160 Z M128,64 L192,64 L192,160 L128,160 Z M352,64 L384,64 L384,160 L352,160 Z M-32,160 L0,160 L0,192 L-32,192 Z M96,160 L128,160 L128,192 L96,192 Z M192,160 L224,160 L224,192 L192,192 Z M320,160 L352,160 L352,192 L320,192 Z M0,192 L96,192 L96,224 L0,224 Z M224,192 L320,192 L320,224 L224,224 Z " transform="translate(96,160)" style="fill: rgb(255, 255, 255); --darkreader-inline-fill: var(--darkreader-text-ffffff, #e8e6e3);" data-darkreader-inline-fill=""/><path d="M0,0 L31,0 L31,384 L-1,384 L-1,1 L0,1 Z M-33,384 L-1,384 L-1,416 L-33,416 Z M-416,416 L-33,416 L-33,448 L-417,448 L-417,417 L-416,417 Z " transform="translate(481,64)" style="fill: rgb(62, 53, 70); --darkreader-inline-fill: var(--darkreader-text-3e3546, #c1bcb4);" data-darkreader-inline-fill=""/><path d="M0,0 L32,0 L32,32 L0,32 Z M416,0 L448,0 L448,32 L416,32 Z M32,32 L416,32 L416,64 L32,64 Z " transform="translate(32,416)" style="fill: rgb(11, 94, 101); --darkreader-inline-fill: var(--darkreader-text-0b5e65, #8aeaf2);" data-darkreader-inline-fill=""/><path d="M0,0 L384,0 L384,32 L0,32 Z M-32,32 L0,32 L0,64 L-32,64 Z M384,32 L416,32 L416,64 L384,64 Z " transform="translate(64,32)" style="fill: rgb(143, 248, 226); --darkreader-inline-fill: var(--darkreader-text-8ff8e2, #81f7de);" data-darkreader-inline-fill=""/><path d="M0,0 L32,0 L32,32 L64,32 L64,64 L32,64 L32,96 L0,96 L0,64 L-32,64 L-32,32 L0,32 Z " transform="translate(352,224)" style="fill: rgb(255, 255, 255); --darkreader-inline-fill: var(--darkreader-text-ffffff, #e8e6e3);" data-darkreader-inline-fill=""/><path d="M0,0 L96,0 L96,32 L0,32 Z " transform="translate(96,256)" style="fill: rgb(255, 255, 255); --darkreader-inline-fill: var(--darkreader-text-ffffff, #e8e6e3);" data-darkreader-inline-fill=""/></svg>