<?xml version="1.0" encoding="UTF-8"?>
<!-- Generator: visioncortex VTracer -->
<svg id="svg" version="1.1" xmlns="http://www.w3.org/2000/svg" style="display: block;" viewBox="0 0 512 512"><path d="M0,0 L64,0 L64,32 L128,32 L128,64 L160,64 L160,96 L192,96 L192,128 L224,128 L224,384 L192,384 L192,416 L160,416 L160,448 L128,448 L128,480 L64,480 L64,512 L0,512 L0,480 L-64,480 L-64,448 L-96,448 L-96,416 L-128,416 L-128,384 L-160,384 L-160,128 L-128,128 L-128,96 L-96,96 L-96,64 L-64,64 L-64,32 L0,32 Z " transform="translate(224,0)" style="fill: #4D9BE6;"/><path d="M0,0 L64,0 L64,32 L32,32 L32,64 L64,64 L64,96 L32,96 L32,224 L64,224 L64,256 L32,256 L32,352 L64,352 L64,384 L32,384 L32,416 L0,416 L0,384 L-64,384 L-64,352 L-128,352 L-128,96 L-96,96 L-96,64 L-64,64 L-64,32 L0,32 Z M64,32 L128,32 L128,64 L64,64 Z M128,64 L160,64 L160,96 L128,96 Z M64,96 L96,96 L96,128 L64,128 Z M96,128 L128,128 L128,192 L96,192 Z M64,192 L96,192 L96,224 L64,224 Z M64,256 L96,256 L96,288 L64,288 Z M96,288 L128,288 L128,320 L96,320 Z M64,320 L96,320 L96,352 L64,352 Z " transform="translate(224,32)" style="fill: #4D9BE6;"/><path d="M0,0 L64,0 L64,32 L0,32 Z M-64,32 L0,32 L0,64 L-64,64 Z M64,32 L128,32 L128,64 L64,64 Z M-96,64 L-64,64 L-64,96 L-96,96 Z M128,64 L160,64 L160,96 L128,96 Z M-128,96 L-96,96 L-96,128 L-128,128 Z M160,96 L192,96 L192,128 L160,128 Z M-160,128 L-128,128 L-128,384 L-160,384 Z M192,128 L224,128 L224,384 L192,384 Z M-128,384 L-96,384 L-96,416 L-128,416 Z M160,384 L192,384 L192,416 L160,416 Z M-96,416 L-64,416 L-64,448 L-96,448 Z M128,416 L160,416 L160,448 L128,448 Z M-64,448 L0,448 L0,480 L-64,480 Z M64,448 L128,448 L128,480 L64,480 Z M0,480 L64,480 L64,512 L0,512 Z " transform="translate(224,0)" style="fill: #3E3546;"/><path d="M0,0 L32,0 L32,32 L64,32 L64,64 L32,64 L32,192 L64,192 L64,224 L32,224 L32,320 L64,320 L64,352 L32,352 L32,384 L0,384 L0,256 L-32,256 L-32,224 L0,224 L0,160 L-32,160 L-32,128 L0,128 Z M-96,64 L-64,64 L-64,96 L-96,96 Z M64,64 L96,64 L96,96 L64,96 Z M-64,96 L-32,96 L-32,128 L-64,128 Z M96,96 L128,96 L128,160 L96,160 Z M64,160 L96,160 L96,192 L64,192 Z M64,224 L96,224 L96,256 L64,256 Z M-64,256 L-32,256 L-32,288 L-64,288 Z M96,256 L128,256 L128,288 L96,288 Z M-96,288 L-64,288 L-64,320 L-96,320 Z M64,288 L96,288 L96,320 L64,320 Z " transform="translate(224,64)" style="fill: #FFFFFF;"/><path d="M0,0 L32,0 L32,32 L0,32 Z M224,0 L256,0 L256,32 L224,32 Z M32,32 L96,32 L96,64 L32,64 Z M160,32 L224,32 L224,64 L160,64 Z M96,64 L160,64 L160,96 L96,96 Z " transform="translate(128,384)" style="fill: #4D65B4;"/><path d="M0,0 L64,0 L64,32 L0,32 Z M-64,32 L0,32 L0,64 L-64,64 Z M64,32 L128,32 L128,64 L64,64 Z M-96,64 L-64,64 L-64,96 L-96,96 Z M128,64 L160,64 L160,96 L128,96 Z " transform="translate(224,32)" style="fill: #8FD3FF;"/></svg>