<?xml version="1.0" encoding="UTF-8"?>
<svg width="384" height="512" version="1.1" xmlns="http://www.w3.org/2000/svg">
<path d="m160 64h64v32h64v32h32v32h32v192h-32v32h-32v32h-64v-32h32v-32h32v-32h-32v-32h-32v-32h32v-32h32v-32h-32v-32h-32v-32h-32v-32h-32z" fill="#4d9be6"/>
<path d="m160 96h32v32h32v32h-32v96h32v32h-32v96h32v32h-32v32h-32v-128h-32v-32h32v-32h-32v-32h32z" fill="#fff"/>
<path d="m32 160h32v32h32v32h32v32h32v32h-32v32h-32v32h-64z" fill="#4d9be6"/>
<path d="m352 128h32v256h-32z" fill="#3e3546"/>
<path d="m0 128h32v256h-32z" fill="#3e3546"/>
<path d="m96 96h64v128h-32v-32h-32v-32h-32v-32h32z" fill="#4d9be6"/>
<path d="m128 320h32v96h-64v-64h32z" fill="#4d9be6"/>
<path d="m192 288h32v32h32v32h-32v32h-32z" fill="#4d9be6"/>
<path d="m192 160h32v32h32v32h-32v32h-32z" fill="#4d9be6"/>
<path d="m160 480h64v32h-64z" fill="#3e3546"/>
<path d="m224 448h64v32h-64z" fill="#3e3546"/>
<path d="m160 448h64v32h-64z" fill="#4d65b4"/>
<path d="m96 448h64v32h-64z" fill="#3e3546"/>
<path d="m224 416h64v32h-64z" fill="#4d65b4"/>
<path d="m96 416h64v32h-64z" fill="#4d65b4"/>
<path d="m224 64h64v32h-64z" fill="#8fd3ff"/>
<path d="m96 64h64v32h-64z" fill="#8fd3ff"/>
<path d="m224 32h64v32h-64z" fill="#3e3546"/>
<path d="m160 32h64v32h-64z" fill="#8fd3ff"/>
<path d="m96 32h64v32h-64z" fill="#3e3546"/>
<path d="m160 0h64v32h-64z" fill="#3e3546"/>
<path d="m288 416h32v32h-32z" fill="#3e3546"/>
<path d="m192 416h32v32h-32z" fill="#4d9be6"/>
<path d="m64 416h32v32h-32z" fill="#3e3546"/>
<path d="m320 384h32v32h-32z" fill="#3e3546"/>
<path d="m288 384h32v32h-32z" fill="#4d65b4"/>
<path d="m64 384h32v32h-32z" fill="#4d65b4"/>
<path d="m32 384h32v32h-32z" fill="#3e3546"/>
<path d="m320 352h32v32h-32z" fill="#4d65b4"/>
<path d="m224 352h32v32h-32z" fill="#fff"/>
<path d="m64 352h32v32h-32z" fill="#fff"/>
<path d="m32 352h32v32h-32z" fill="#4d65b4"/>
<path d="m256 320h32v32h-32z" fill="#fff"/>
<path d="m96 320h32v32h-32z" fill="#fff"/>
<path d="m224 288h32v32h-32z" fill="#fff"/>
<path d="m224 224h32v32h-32z" fill="#fff"/>
<path d="m256 192h32v32h-32z" fill="#fff"/>
<path d="m96 192h32v32h-32z" fill="#fff"/>
<path d="m224 160h32v32h-32z" fill="#fff"/>
<path d="m64 160h32v32h-32z" fill="#fff"/>
<path d="m320 128h32v32h-32z" fill="#8fd3ff"/>
<path d="m32 128h32v32h-32z" fill="#8fd3ff"/>
<path d="m320 96h32v32h-32z" fill="#3e3546"/>
<path d="m288 96h32v32h-32z" fill="#8fd3ff"/>
<path d="m64 96h32v32h-32z" fill="#8fd3ff"/>
<path d="m32 96h32v32h-32z" fill="#3e3546"/>
<path d="m288 64h32v32h-32z" fill="#3e3546"/>
<path d="m64 64h32v32h-32z" fill="#3e3546"/>
</svg>
