<?xml version="1.0" encoding="UTF-8"?>
<svg width="512" height="512" version="1.1" viewBox="0 0 512 512" xmlns="http://www.w3.org/2000/svg">
<path transform="translate(160,96)" d="m0 0h192v32h64v32h32v192h-32v32h-64v32h-192v-32h-64v-32h-32v-192h32v-32h64zm-64 96v128h96v-128zm128 0v64h32v-32h32v-32zm96 0v128h96v-128h-32v96h-32v-96zm-64 64v32h-32v32h64v-64z" fill="#F04F78"/>
<path transform="translate(96,192)" d="m0 0h96v128h-96zm32 32v64h32v-64z" fill="#fff"/>
<path transform="translate(320,192)" d="m0 0h32v96h32v-96h32v128h-96z" fill="#fff"/>
<path transform="translate(160,480)" d="m0 0h192v32h-192z" fill="#3E3546"/>
<path transform="translate(160,448)" d="m0 0h192v32h-192z" fill="#fff"/>
<path transform="translate(160,416)" d="m0 0h192v32h-192z" fill="#C32454"/>
<path transform="translate(480,160)" d="m0 0h32v192h-32z" fill="#3E3546"/>
<path transform="translate(448,160)" d="m0 0h32v192h-32z" fill="#fff"/>
<path transform="translate(32,160)" d="m0 0h32v192h-32z" fill="#fff"/>
<path transform="translate(0,160)" d="m0 0h32v192h-32z" fill="#3E3546"/>
<path transform="translate(160,64)" d="m0 0h192v32h-192z" fill="#F68181"/>
<path transform="translate(160,32)" d="m0 0h192v32h-192z" fill="#fff"/>
<path transform="translate(160)" d="m0 0h192v32h-192z" fill="#3E3546"/>
<path transform="translate(256,256)" d="m0 0h32v64h-64v-32h32z" fill="#fff"/>
<path transform="translate(224,192)" d="m0 0h64v32h-32v32h-32z" fill="#fff"/>
<path transform="translate(352,448)" d="m0 0h64v32h-64z" fill="#3E3546"/>
<path transform="translate(96,448)" d="m0 0h64v32h-64z" fill="#3E3546"/>
<path transform="translate(352,416)" d="m0 0h64v32h-64z" fill="#fff"/>
<path transform="translate(96,416)" d="m0 0h64v32h-64z" fill="#fff"/>
<path transform="translate(352,384)" d="m0 0h64v32h-64z" fill="#C32454"/>
<path transform="translate(96,384)" d="m0 0h64v32h-64z" fill="#C32454"/>
<path transform="translate(448,352)" d="m0 0h32v64h-32z" fill="#3E3546"/>
<path transform="translate(416,352)" d="m0 0h32v64h-32z" fill="#fff"/>
<path transform="translate(64,352)" d="m0 0h32v64h-32z" fill="#fff"/>
<path transform="translate(32,352)" d="m0 0h32v64h-32z" fill="#3E3546"/>
<path transform="translate(128,224)" d="m0 0h32v64h-32z" fill="#F04F78"/>
<path transform="translate(448,96)" d="m0 0h32v64h-32z" fill="#3E3546"/>
<path transform="translate(416,96)" d="m0 0h32v64h-32z" fill="#fff"/>
<path transform="translate(352,96)" d="m0 0h64v32h-64z" fill="#F68181"/>
<path transform="translate(96,96)" d="m0 0h64v32h-64z" fill="#F68181"/>
<path transform="translate(64,96)" d="m0 0h32v64h-32z" fill="#fff"/>
<path transform="translate(32,96)" d="m0 0h32v64h-32z" fill="#3E3546"/>
<path transform="translate(352,64)" d="m0 0h64v32h-64z" fill="#fff"/>
<path transform="translate(96,64)" d="m0 0h64v32h-64z" fill="#fff"/>
<path transform="translate(352,32)" d="m0 0h64v32h-64z" fill="#3E3546"/>
<path transform="translate(96,32)" d="m0 0h64v32h-64z" fill="#3E3546"/>
<path transform="translate(416,416)" d="m0 0h32v32h-32z" fill="#3E3546"/>
<path transform="translate(64,416)" d="m0 0h32v32h-32z" fill="#3E3546"/>
<path transform="translate(416,64)" d="m0 0h32v32h-32z" fill="#3E3546"/>
<path transform="translate(64,64)" d="m0 0h32v32h-32z" fill="#3E3546"/>
</svg>
