<?xml version="1.0" encoding="UTF-8"?>
<svg width="416" height="512" version="1.1" xmlns="http://www.w3.org/2000/svg">
<path d="m192 128h32v64h32v-32h32v32h32v-32h32v32h32v32h-64v32h-32v-32h-64v32h-32v-32h-64v32h-32v-32h-64v-32h32v-32h32v32h32v-32h32v32h32z" fill="#3e3546"/>
<path d="m224 352h32v32h64v-32h32v64h-32v32h-64v32h-32z" fill="#966c6c"/>
<path d="m64 352h32v32h64v-32h32v128h-32v-32h-64v-32h-32z" fill="#966c6c"/>
<path d="m96 0h224v32h-32v32h-32v-32h-96v32h-32v-32h-32z" fill="#3e3546"/>
<path d="m192 352h32v128h32v32h-96v-32h32z" fill="#3e3546"/>
<path d="m192 256h32v32h32v32h-32v32h-32v-32h-32v-32h32z" fill="#625565"/>
<path d="m320 320h64v96h-32v-64h-32z" fill="#3e3546"/>
<path d="m32 320h64v32h-32v64h-32z" fill="#3e3546"/>
<path d="m224 256h64v32h32v32h-64v-32h-32z" fill="#3e3546"/>
<path d="m128 256h64v32h-32v32h-64v-32h32z" fill="#3e3546"/>
<path d="m256 96h32v64h-32v32h-32v-64h32z" fill="#a884f3"/>
<path d="m128 96h32v32h32v64h-32v-32h-32z" fill="#a884f3"/>
<path d="m160 32h96v32h-32v32h-32v-32h-32z" fill="#eaaded"/>
<path d="m352 64h32v96h-32z" fill="#3e3546"/>
<path d="m288 64h32v96h-32z" fill="#3e3546"/>
<path d="m96 64h32v96h-32z" fill="#3e3546"/>
<path d="m32 64h32v96h-32z" fill="#3e3546"/>
<path d="m256 448h64v32h-64z" fill="#3e3546"/>
<path d="m96 448h64v32h-64z" fill="#3e3546"/>
<path d="m256 352h64v32h-64z" fill="#3e3546"/>
<path d="m96 352h64v32h-64z" fill="#3e3546"/>
<path d="m256 320h64v32h-64z" fill="#ab947a"/>
<path d="m96 320h64v32h-64z" fill="#ab947a"/>
<path d="m320 288h64v32h-64z" fill="#ab947a"/>
<path d="m32 288h64v32h-64z" fill="#ab947a"/>
<path d="m320 256h64v32h-64z" fill="#3e3546"/>
<path d="m32 256h64v32h-64z" fill="#3e3546"/>
<path d="m320 224h64v32h-64z" fill="#ab947a"/>
<path d="m224 224h64v32h-64z" fill="#a884f3"/>
<path d="m128 224h64v32h-64z" fill="#a884f3"/>
<path d="m32 224h64v32h-64z" fill="#ab947a"/>
<path d="m320 96h32v64h-32z" fill="#a884f3"/>
<path d="m64 96h32v64h-32z" fill="#a884f3"/>
<path d="m224 64h32v64h-32z" fill="#3e3546"/>
<path d="m160 64h32v64h-32z" fill="#3e3546"/>
<path d="m320 416h32v32h-32z" fill="#3e3546"/>
<path d="m64 416h32v32h-32z" fill="#3e3546"/>
<path d="m224 320h32v32h-32z" fill="#3e3546"/>
<path d="m160 320h32v32h-32z" fill="#3e3546"/>
<path d="m384 288h32v32h-32z" fill="#3e3546"/>
<path d="m0 288h32v32h-32z" fill="#3e3546"/>
<path d="m288 256h32v32h-32z" fill="#625565"/>
<path d="m96 256h32v32h-32z" fill="#625565"/>
<path d="m384 224h32v32h-32z" fill="#3e3546"/>
<path d="m0 224h32v32h-32z" fill="#3e3546"/>
<path d="m288 160h32v32h-32z" fill="#a884f3"/>
<path d="m96 160h32v32h-32z" fill="#a884f3"/>
<path d="m192 96h32v32h-32z" fill="#a884f3"/>
<path d="m320 64h32v32h-32z" fill="#eaaded"/>
<path d="m256 64h32v32h-32z" fill="#eaaded"/>
<path d="m128 64h32v32h-32z" fill="#eaaded"/>
<path d="m64 64h32v32h-32z" fill="#eaaded"/>
<path d="m320 32h32v32h-32z" fill="#3e3546"/>
<path d="m288 32h32v32h-32z" fill="#eaaded"/>
<path d="m96 32h32v32h-32z" fill="#eaaded"/>
<path d="m64 32h32v32h-32z" fill="#3e3546"/>
</svg>
