<?xml version="1.0" encoding="UTF-8" standalone="no"?>
<!-- Created with Inkscape (http://www.inkscape.org/) -->

<svg
   version="1.1"
   id="svg1"
   width="16"
   height="16"
   viewBox="0 0 16 16"
   sodipodi:docname="cachyos-pi.svg"
   inkscape:version="1.4.3 (0d15f75042, 2025-12-25)"
   xmlns:inkscape="http://www.inkscape.org/namespaces/inkscape"
   xmlns:sodipodi="http://sodipodi.sourceforge.net/DTD/sodipodi-0.dtd"
   xmlns="http://www.w3.org/2000/svg"
   xmlns:svg="http://www.w3.org/2000/svg">
  <defs
     id="defs1" />
  <sodipodi:namedview
     id="namedview1"
     pagecolor="#ffffff"
     bordercolor="#000000"
     borderopacity="0.25"
     inkscape:showpageshadow="2"
     inkscape:pageopacity="0.0"
     inkscape:pagecheckerboard="0"
     inkscape:deskcolor="#d1d1d1"
     showgrid="false"
     inkscape:zoom="14.375"
     inkscape:cx="8"
     inkscape:cy="5.7043478"
     inkscape:window-width="1861"
     inkscape:window-height="1058"
     inkscape:window-x="0"
     inkscape:window-y="0"
     inkscape:window-maximized="1"
     inkscape:current-layer="g1">
    <inkscape:page
       x="0"
       y="0"
       width="16"
       height="16"
       id="page2"
       margin="0"
       bleed="0" />
  </sodipodi:namedview>
  <g
     inkscape:groupmode="layer"
     inkscape:label="Image"
     id="g1">
    <g
       id="g2"
       transform="scale(0.03125)">
      <path
         style="fill:#90da68"
         d="m 272,480 h -16 v -16 -16 h -16 -16 v -16 -16 h -16 -16 v -16 -16 h -16 -16 v -16 -16 h 16 16 v -16 -16 h -16 -16 v -16 -16 h 16 16 v -16 -16 h 16 16 v -16 -16 h 16 16 V 192 160 H 240 224 V 144 128 H 208 192 V 112 96 H 176 160 V 80 64 h 16 16 V 48 32 h 16 16 v 16 16 h 16 16 v 16 16 h 16 16 v 16 16 h 16 16 v 16 16 h -16 -16 v 32 32 h 16 16 v -16 -16 h 16 16 v 16 16 h -16 -16 v 16 16 h -16 -16 v 16 16 h -16 -16 v 16 16 h -16 -16 v 16 16 h 16 16 v 16 16 h 16 16 v 16 16 h -16 -16 v 16 16 h 16 16 v 16 16 z m -32,-64 h 16 v -16 -16 h -16 -16 v -16 -16 h -16 -16 v 16 16 h 16 16 v 16 16 z m -32,-96 h 16 v -16 -16 h 16 16 v -16 -16 h 16 16 v -16 -16 h -16 -16 v 16 16 h -16 -16 v 16 16 h -16 -16 v 16 16 z m 64,-160 h 16 V 144 128 H 272 256 V 112 96 H 240 224 V 80 64 h -16 -16 v 16 16 h 16 16 v 16 16 h 16 16 v 16 16 z m 224,96 h -16 v -16 -16 h 16 16 v 16 16 z"
         id="path5" />
      <path
         style="fill:#1dbb72"
         d="M 240,480 H 224 V 464 448 H 192 160 V 432 416 H 144 128 V 400 384 H 112 96 v -16 -16 h 32 32 v 16 16 h 16 16 v 16 16 h 16 16 v 16 16 h 16 16 v 16 16 z m 96,-64 h -48 v -16 -16 h -16 -16 v -16 -16 h -16 -16 v -16 -16 h 16 16 v -16 -16 h 16 16 v -16 -16 h 16 16 v -16 -16 h 16 16 v -16 -16 h 16 16 v 16 16 h 16 16 v 16 16 h 16 16 v 16 16 h 16 16 v 16 16 h -16 -16 v 16 16 h -16 -16 v 16 16 h -16 -16 v 16 16 z M 80,320 H 64 v -16 -16 h 16 16 v 16 16 z m 80,-32 H 128 V 272 256 H 112 96 V 240 224 H 80 64 v -32 -32 h 16 16 v -16 -16 h 16 16 V 112 96 h 32 32 v 16 16 h 16 16 v 16 16 h 16 16 v 32 32 h -16 -16 v 16 16 h -16 -16 v 16 16 z m 336,-64 h -16 v -16 -16 h 16 16 v 16 16 z M 384,160 H 320 V 144 128 H 304 288 V 112 96 H 272 256 V 80 64 h 64 64 v 16 16 h 16 16 v 16 16 h 16 16 v 16 16 z"
         id="path4" />
      <path
         style="fill:#0a898e"
         d="M 192,480 H 160 V 464 448 H 144 128 V 432 416 H 112 96 V 400 384 H 80 64 v -16 -16 h 16 16 v 16 16 h 16 16 v 16 16 h 16 16 v 16 16 h 32 32 v 16 16 z m 144,-32 h -48 v -16 -16 h 48 48 v -16 -16 h 16 16 v -16 -16 h 16 16 v -16 -16 h 16 16 v 16 16 h -16 -16 v 16 16 h -16 -16 v 16 16 h -16 -16 v 16 16 z M 48,320 H 32 V 288 256 H 48 64 V 240 224 H 48 32 V 192 160 H 48 64 V 144 128 H 80 96 V 112 96 h 16 16 V 80 64 h 16 16 v 16 16 h -16 -16 v 16 16 H 112 96 v 16 16 H 80 64 v 32 32 h 16 16 v 16 16 h 16 16 v 16 16 h 16 16 v 16 16 H 144 128 V 304 288 H 112 96 V 272 256 H 80 64 v 32 32 z m 416,-32 h -16 v -16 -16 h -16 -16 v -16 -16 h -16 -16 v -16 -16 h 16 16 v 16 16 h 16 16 v -16 -16 h 16 16 V 176 160 H 464 448 V 144 128 H 432 416 V 112 96 H 400 384 V 80 64 H 304 224 V 48 32 h 80 80 v 16 16 h 16 16 v 16 16 h 16 16 v 16 16 h 16 16 v 16 16 h 16 16 v 16 16 h -16 -16 v 16 16 h -16 -16 v 16 16 h 16 16 v 16 16 z"
         id="path3" />
      <path
         style="fill:#3d3445"
         d="M 224,512 H 160 V 496 480 H 144 128 V 464 448 H 112 96 V 432 416 H 80 64 V 400 384 H 48 32 V 352 320 H 16 0 V 288 256 H 16 32 V 240 224 H 16 0 V 192 160 H 16 32 V 144 128 H 48 64 V 112 96 H 80 96 V 80 64 h 16 16 V 48 32 h 32 32 V 16 0 h 96 96 v 16 16 h 16 16 v 16 16 h 16 16 v 16 16 h 16 16 v 16 16 h 16 16 v 16 16 h -16 -16 v 16 16 h -16 -16 v 16 16 h 16 16 v 16 16 h 16 16 v 48 48 h -16 -16 v 16 16 h -16 -16 v 16 16 h -16 -16 v 16 16 h -16 -16 v 16 16 h -48 -48 v 16 16 z m 0,-32 h 64 v -16 -16 h 48 48 v -16 -16 h 16 16 v -16 -16 h 16 16 v -16 -16 h 16 16 v -48 -48 h -16 -16 v -16 -16 h -16 -16 v -16 -16 h -48 -48 v 16 16 h -16 -16 v -32 -32 h 96 96 V 144 128 H 464 448 V 112 96 H 432 416 V 80 64 H 400 384 V 48 32 H 288 192 V 48 64 H 160 128 V 80 96 H 112 96 v 16 16 H 80 64 v 16 16 H 48 32 v 32 32 h 16 16 v 16 16 H 48 32 v 32 32 h 32 32 v -16 -16 h 16 16 v 16 16 h 32 32 v 16 16 H 128 64 v 16 16 h 16 16 v 16 16 h 16 16 v 16 16 h 16 16 v 16 16 z m 48,-32 h -16 v -16 -16 h -16 -16 v -16 -16 h -16 -16 v -16 -16 h 16 16 v 16 16 h 16 16 v 16 16 h 16 16 v 16 16 z M 208,320 h -16 v -16 -16 h 16 16 v -16 -16 h 16 16 v -16 -16 h 16 16 v 16 16 h -16 -16 v 16 16 h -16 -16 v 16 16 z M 80,288 H 64 v -16 -16 h 16 16 v 16 16 z M 272,160 H 256 V 144 128 H 240 224 V 112 96 H 208 192 V 80 64 h 16 16 v 16 16 h 16 16 v 16 16 h 16 16 v 16 16 z"
         id="path2" />
    </g>
  </g>
</svg>
