<?xml version="1.0" encoding="UTF-8" standalone="no"?>
<!-- Created with Inkscape (http://www.inkscape.org/) -->

<svg
   version="1.1"
   id="svg1"
   width="16"
   height="16"
   viewBox="0 0 16 16"
   sodipodi:docname="java25-openjdk.svg"
   inkscape:version="1.4.3 (0d15f75042, 2025-12-25)"
   xmlns:inkscape="http://www.inkscape.org/namespaces/inkscape"
   xmlns:sodipodi="http://sodipodi.sourceforge.net/DTD/sodipodi-0.dtd"
   xmlns="http://www.w3.org/2000/svg"
   xmlns:svg="http://www.w3.org/2000/svg">
  <defs
     id="defs1" />
  <sodipodi:namedview
     id="namedview1"
     pagecolor="#ffffff"
     bordercolor="#000000"
     borderopacity="0.25"
     inkscape:showpageshadow="2"
     inkscape:pageopacity="0.0"
     inkscape:pagecheckerboard="0"
     inkscape:deskcolor="#d1d1d1"
     showgrid="false"
     inkscape:zoom="0.8984375"
     inkscape:cx="256"
     inkscape:cy="256"
     inkscape:window-width="1861"
     inkscape:window-height="1058"
     inkscape:window-x="0"
     inkscape:window-y="0"
     inkscape:window-maximized="1"
     inkscape:current-layer="g1">
    <inkscape:page
       x="0"
       y="0"
       width="16"
       height="16"
       id="page2"
       margin="0"
       bleed="0" />
  </sodipodi:namedview>
  <g
     inkscape:groupmode="layer"
     inkscape:label="Image"
     id="g1">
    <g
       id="g2"
       transform="scale(0.03125)">
      <path
         style="fill:#fefefe"
         d="M 176,480 H 128 V 464 448 H 112 96 v -48 -48 h 16 16 v -48 -48 h 16 16 v -16 -16 h 16 16 v 32 32 h 16 16 v 16 16 h 48 48 v -16 -16 h 16 16 v -32 -32 h 16 16 v 16 16 h 16 16 v 16 16 h -16 -16 v 32 32 h 16 16 v 16 16 h 16 16 v 32 32 h -16 -16 v 16 16 h -48 -48 v -16 -16 h -16 -16 v -16 -16 h -16 -16 v 16 16 h -16 -16 v 16 16 z"
         id="path11" />
      <path
         style="fill:#8ed2fe"
         d="M 112,288 H 96 v -16 -16 h 16 16 v 16 16 z"
         id="path10" />
      <path
         style="fill:#4c9ae5"
         d="M 80,288 H 64 v -16 -16 h 16 16 v 16 16 z"
         id="path9" />
      <path
         style="fill:#ef4e77"
         d="m 272,192 h -16 v -16 -16 h -16 -16 v -16 -16 h 48 48 v 16 16 h -16 -16 v 16 16 z"
         id="path8" />
      <path
         style="fill:#e73a3a"
         d="m 272,224 h -48 v -16 -16 h -16 -16 v -16 -16 h 32 32 v 16 16 h 16 16 v -16 -16 h 32 32 v 16 16 h -16 -16 v 16 16 z"
         id="path7" />
      <path
         style="fill:#c22353"
         d="m 272,256 h -80 v -32 -32 h 16 16 v 16 16 h 48 48 v -16 -16 h 16 16 v 32 32 z"
         id="path6" />
      <path
         style="fill:#615464"
         d="M 112,480 H 96 v -16 -16 h 16 16 v 16 16 z m 128,0 h -16 v -16 -16 h 16 16 v -16 -16 h 16 16 v 16 16 h 16 16 v 16 16 h -16 -16 v -16 -16 h -16 -16 v 16 16 z m 192,0 h -16 v -16 -16 h 16 16 v 16 16 z m 0,-96 h -16 v -16 -16 h -16 -16 v -32 -32 h 16 16 v 32 32 h 16 16 v 16 16 z M 96,352 H 64 v -32 -32 h 32 32 v 32 32 z"
         id="path5" />
      <path
         style="fill:#792f44"
         d="m 272,288 h -48 v -16 -16 h 48 48 v 16 16 z"
         id="path4" />
      <path
         style="fill:#3d3445"
         d="M 176,512 H 96 V 496 480 H 80 64 V 448 416 H 48 32 V 400 384 H 16 0 v -16 -16 h 16 16 v 16 16 h 32 32 v 48 48 h 80 80 v -16 -16 h 16 16 v 16 16 h 80 80 v -64 -64 h -16 -16 v -32 -32 h 32 32 v -48 -48 h -16 -16 v 16 16 H 432 416 V 208 192 H 400 384 V 160 128 H 368 352 V 112 96 H 336 320 V 80 64 H 304 288 V 48 32 H 272 256 V 16 0 h 16 16 v 16 16 h 16 16 v 16 16 h 16 16 v 16 16 h 16 16 v 16 16 h 16 16 v 32 32 h 16 16 v -16 -16 h 16 16 v 16 16 h 16 16 v 48 48 h -16 -16 v 16 16 h -16 -16 v 16 16 h 16 16 v 64 64 h -16 -16 v 16 16 h -80 -80 v -16 -16 h -16 -16 v 16 16 z m 96,-192 h -48 v -16 -16 h -16 -16 v -16 -16 h 16 16 v 16 16 h 48 48 v -16 -16 h 16 16 v 16 16 h -16 -16 v 16 16 z M 16,256 H 0 v -16 -16 h 16 16 v -16 -16 h 16 16 v -16 -16 h 32 32 V 128 96 h 16 16 V 80 64 h 16 16 V 32 0 h 16 16 v 32 32 h -16 -16 v 16 16 h -16 -16 v 32 32 h -16 -16 v 16 16 H 96 64 v 16 16 H 48 32 v 16 16 z"
         id="path3" />
      <path
         style="fill:#000000"
         d="M 64,384 H 32 V 368 352 H 16 0 v -48 -48 h 16 16 v -16 -16 h 16 16 v -16 -16 h 32 32 v -16 -16 h 16 16 V 128 96 h 16 16 V 80 64 h 16 16 V 32 0 h 16 16 v 16 16 h 16 16 v 16 16 h 16 16 v 16 16 h 16 16 v 16 16 h 16 16 v 32 32 h 16 16 v 16 16 h 16 16 v -16 -16 h 16 16 v 48 48 h -32 -32 v -16 -16 h -16 -16 v -16 -16 h -16 -16 v -32 -32 h -16 -16 v -16 -16 h -48 -48 v 16 16 h -16 -16 v 32 32 h -16 -16 v 16 16 H 112 64 v 48 48 h 16 16 v 16 16 z"
         id="path2" />
    </g>
  </g>
</svg>
