<?xml version="1.0" encoding="UTF-8" standalone="no"?>
<!-- Created with Inkscape (http://www.inkscape.org/) -->

<svg
   version="1.1"
   id="svg1"
   width="16"
   height="16"
   viewBox="0 0 16 16"
   sodipodi:docname="lutris.svg"
   inkscape:version="1.4.3 (0d15f75042, 2025-12-25)"
   xmlns:inkscape="http://www.inkscape.org/namespaces/inkscape"
   xmlns:sodipodi="http://sodipodi.sourceforge.net/DTD/sodipodi-0.dtd"
   xmlns="http://www.w3.org/2000/svg"
   xmlns:svg="http://www.w3.org/2000/svg">
  <defs
     id="defs1" />
  <sodipodi:namedview
     id="namedview1"
     pagecolor="#ffffff"
     bordercolor="#000000"
     borderopacity="0.25"
     inkscape:showpageshadow="2"
     inkscape:pageopacity="0.0"
     inkscape:pagecheckerboard="0"
     inkscape:deskcolor="#d1d1d1"
     showgrid="false"
     inkscape:zoom="0.8984375"
     inkscape:cx="256"
     inkscape:cy="256"
     inkscape:window-width="1861"
     inkscape:window-height="1058"
     inkscape:window-x="0"
     inkscape:window-y="0"
     inkscape:window-maximized="1"
     inkscape:current-layer="g1">
    <inkscape:page
       x="0"
       y="0"
       width="16"
       height="16"
       id="page2"
       margin="0"
       bleed="0" />
  </sodipodi:namedview>
  <g
     inkscape:groupmode="layer"
     inkscape:label="Image"
     id="g1">
    <g
       id="g2"
       transform="scale(0.03125)">
      <path
         style="fill:#fefefe"
         d="M 160,432 V 416 H 144 128 V 368 320 H 112 96 v -64 -64 h 16 16 v 16 16 h 16 16 v 80 80 h 16 16 v 16 16 h 96 96 v -16 -16 h 16 16 v -16 -16 h 16 16 v -16 -16 h 16 16 v 16 16 h -16 -16 v 16 16 h -16 -16 v 16 16 h -16 -16 v 16 16 H 272 160 Z M 192,112 V 96 h 96 96 v 16 16 h -96 -96 z"
         id="path10" />
      <path
         style="fill:#fcfcfb"
         d="M 384,176 V 160 H 272 160 v -16 -16 h 160 160 v 16 16 h 16 16 v 16 16 h -64 -64 z"
         id="path9" />
      <path
         style="fill:#f7f5f5"
         d="m 192,176 v -16 h 16 16 v 16 16 h -16 -16 z"
         id="path8" />
      <path
         style="fill:#fab853"
         d="m 192,400 v -16 h -16 -16 v -32 -32 h 16 16 v -16 -16 h 16 16 v -48 -48 h 80 80 v 16 16 h 48 48 v 48 48 h -16 -16 v 16 16 h -16 -16 v 16 16 h -16 -16 v 16 16 h -96 -96 z"
         id="path7" />
      <path
         style="fill:#cc673c"
         d="m 160,288 v -32 h 32 32 v 16 16 h -16 -16 v 16 16 H 176 160 Z M 32,192 V 160 H 48 64 V 128 96 H 80 96 V 80 64 h 32 32 V 48 32 h 96 96 V 48 64 H 256 160 V 80 96 H 128 96 v 32 32 H 80 64 v 32 32 H 48 32 Z m 352,16 v -16 h -80 -80 v -16 -16 h 80 80 v 16 16 h 48 48 v 16 16 h -48 -48 z"
         id="path6" />
      <path
         style="fill:#9d4438"
         d="M 64,384 V 352 H 48 32 V 288 224 H 48 64 V 192 160 H 80 96 V 128 96 h 32 32 V 80 64 h 96 96 V 48 32 h 16 16 v 16 16 h 48 48 v 32 32 H 464 448 V 112 96 h -16 -16 v 16 16 H 400 384 V 112 96 h -96 -96 v 16 16 h -16 -16 v 16 16 h 16 16 v 16 16 h 16 16 v 32 32 H 192 160 V 240 224 H 144 128 V 208 192 H 112 96 v 64 64 h 16 16 v 32 32 H 112 96 v 16 16 H 80 64 Z"
         id="path5" />
      <path
         style="fill:#792f44"
         d="M 128,464 V 448 H 112 96 v -32 -32 h 16 16 v 16 16 h 16 16 v 16 16 h 112 112 v -16 -16 h 16 16 v -16 -16 h 16 16 v -16 -16 h 16 16 v 32 32 h -16 -16 v 16 16 h -16 -16 v 16 16 H 272 128 Z"
         id="path4" />
      <path
         style="fill:#3e3e3e"
         d="m 480,144 v -16 h 16 16 v 16 16 H 496 480 Z M 416,112 V 96 h 16 16 v 16 16 h -16 -16 z"
         id="path3" />
      <path
         style="fill:#3d3445"
         d="M 128,496 V 480 H 112 96 V 464 448 H 80 64 V 432 416 H 48 32 V 384 352 H 16 0 V 256 160 H 16 32 V 128 96 H 48 64 V 80 64 H 80 96 V 48 32 h 32 32 V 16 0 h 112 112 v 16 16 h 48 48 v 16 16 h 16 16 v 32 32 H 496 480 V 96 64 H 432 384 V 48 32 H 272 160 V 48 64 H 128 96 V 80 96 H 80 64 v 32 32 H 48 32 v 96 96 h 16 16 v 32 32 h 16 16 v 16 16 h 16 16 v 16 16 h 144 144 v -16 -16 h 16 16 v -16 -16 h 16 16 V 304 192 h 16 16 v 112 112 h -16 -16 v 16 16 h -16 -16 v 16 16 h -16 -16 v 16 16 H 272 128 Z"
         id="path2" />
    </g>
  </g>
</svg>
