<?xml version="1.0" encoding="UTF-8" standalone="no"?>
<!-- Created with Inkscape (http://www.inkscape.org/) -->

<svg
   version="1.1"
   id="svg1"
   width="16.000002"
   height="16"
   viewBox="0 0 16.000002 16"
   sodipodi:docname="io.mrarm.mcpelauncher.svg"
   inkscape:version="1.4.3 (0d15f75042, 2025-12-25)"
   xmlns:inkscape="http://www.inkscape.org/namespaces/inkscape"
   xmlns:sodipodi="http://sodipodi.sourceforge.net/DTD/sodipodi-0.dtd"
   xmlns="http://www.w3.org/2000/svg"
   xmlns:svg="http://www.w3.org/2000/svg">
  <defs
     id="defs1" />
  <sodipodi:namedview
     id="namedview1"
     pagecolor="#ffffff"
     bordercolor="#000000"
     borderopacity="0.25"
     inkscape:showpageshadow="2"
     inkscape:pageopacity="0.0"
     inkscape:pagecheckerboard="0"
     inkscape:deskcolor="#d1d1d1"
     showgrid="false"
     inkscape:zoom="28.75"
     inkscape:cx="4.4173913"
     inkscape:cy="9.7043479"
     inkscape:window-width="1861"
     inkscape:window-height="1058"
     inkscape:window-x="0"
     inkscape:window-y="0"
     inkscape:window-maximized="1"
     inkscape:current-layer="g1">
    <inkscape:page
       x="0"
       y="0"
       width="16.000002"
       height="16"
       id="page2"
       margin="0"
       bleed="0" />
  </sodipodi:namedview>
  <g
     inkscape:groupmode="layer"
     inkscape:label="Image"
     id="g1"
     transform="translate(-32)">
    <g
       id="g2"
       transform="matrix(0.03571429,0,0,0.03125,30.857143,0)">
      <path
         style="fill:#90da68"
         d="M 256,256 H 224 V 240 224 H 192 160 V 208 192 H 128 96 V 176 160 H 80 64 V 144 128 H 80 96 V 112 96 h 32 32 V 80 64 h 32 32 V 48 32 h 32 32 v 16 16 h 32 32 v 16 16 h 32 32 v 16 16 h 16 16 v 16 16 h -16 -16 v 16 16 h -32 -32 v 16 16 h -32 -32 v 16 16 z"
         id="path6" />
      <path
         style="fill:#1dbb72"
         d="m 240,352 h -16 v -16 -16 h -16 -16 v -16 -16 h -16 -16 v 16 16 H 144 128 V 288 256 H 112 96 v 16 16 H 80 64 v -64 -64 h 16 16 v 16 16 h 32 32 v 16 16 h 32 32 v 16 16 h 16 16 v 48 48 z"
         id="path5" />
      <path
         style="fill:#615464"
         d="M 240,480 H 224 V 464 448 H 192 160 V 432 416 H 128 96 v -16 -16 h 16 16 V 368 352 H 96 64 v -16 -16 h 16 16 v -32 -32 h 16 16 v 32 32 h 16 16 v -16 -16 h 16 16 v 16 16 h -16 -16 v 16 16 h 48 48 v 32 32 h 32 32 v 16 16 h -32 -32 v 16 16 z m -48,-64 h 32 v -16 -16 h -32 -32 v 16 16 z m 208,0 h -16 v -16 -16 h 16 16 v 16 16 z m -80,-32 h -32 v -16 -16 h 32 32 v 16 16 z m 96,-32 h -32 v -16 -16 h 32 32 v 16 16 z"
         id="path4" />
      <path
         style="fill:#0a5d64"
         d="m 336,352 h -16 v -16 -16 h -32 -32 v -32 -32 h 16 16 v -16 -16 h 32 32 v -16 -16 h 32 32 v -16 -16 h 16 16 v 64 64 h -16 -16 v 16 16 h -16 -16 v -16 -16 h -16 -16 v 32 32 z"
         id="path3" />
      <path
         style="fill:#3d3445"
         d="M 256,512 H 224 V 496 480 H 192 160 V 464 448 H 128 96 V 432 416 H 80 64 V 400 384 H 48 32 V 256 128 H 48 64 V 112 96 H 80 96 V 80 64 h 32 32 V 48 32 h 32 32 V 16 0 h 32 32 v 16 16 h 32 32 v 16 16 h 32 32 v 16 16 h 16 16 v 16 16 h 16 16 v 128 128 h -16 -16 v 16 16 h -16 -16 v 16 16 h -32 -32 v 16 16 h -32 -32 v 16 16 z m -16,-32 h 16 v -16 -16 h 32 32 v -16 -16 h -32 -32 v -48 -48 h 32 32 v 16 16 h -16 -16 v 16 16 h 32 32 v -48 -48 h 16 16 v 32 32 h 32 32 v -16 -16 h -16 -16 v -16 -16 h 16 16 V 208 128 H 432 416 V 112 96 H 384 352 V 80 64 H 320 288 V 48 32 H 256 224 V 48 64 H 192 160 V 80 96 H 128 96 v 16 16 H 80 64 v 80 80 h 16 16 v 16 16 H 80 64 v 16 16 h 32 32 v 16 16 H 112 96 v 16 16 h 32 32 v 16 16 h 32 32 v 16 16 z m -48,-64 h -32 v -16 -16 h 32 32 v 16 16 z m 0,-64 h -32 v -16 -16 h 32 32 v 16 16 z m 208,64 h 16 v -16 -16 h -16 -16 v 16 16 z"
         id="path2" />
    </g>
  </g>
</svg>
