<?xml version="1.0" encoding="UTF-8" standalone="no"?>
<!-- Created with Inkscape (http://www.inkscape.org/) -->

<svg
   version="1.1"
   id="svg1"
   width="16"
   height="16"
   viewBox="0 0 16 16"
   sodipodi:docname="nvidia.svg"
   inkscape:version="1.4.3 (0d15f75042, 2025-12-25)"
   xmlns:inkscape="http://www.inkscape.org/namespaces/inkscape"
   xmlns:sodipodi="http://sodipodi.sourceforge.net/DTD/sodipodi-0.dtd"
   xmlns="http://www.w3.org/2000/svg"
   xmlns:svg="http://www.w3.org/2000/svg">
  <defs
     id="defs1" />
  <sodipodi:namedview
     id="namedview1"
     pagecolor="#ffffff"
     bordercolor="#000000"
     borderopacity="0.25"
     inkscape:showpageshadow="2"
     inkscape:pageopacity="0.0"
     inkscape:pagecheckerboard="0"
     inkscape:deskcolor="#d1d1d1"
     showgrid="false"
     inkscape:zoom="0.8984375"
     inkscape:cx="198.12174"
     inkscape:cy="279.37391"
     inkscape:window-width="1861"
     inkscape:window-height="1058"
     inkscape:window-x="0"
     inkscape:window-y="0"
     inkscape:window-maximized="1"
     inkscape:current-layer="g1">
    <inkscape:page
       x="0"
       y="0"
       width="16"
       height="16"
       id="page2"
       margin="0"
       bleed="0" />
  </sodipodi:namedview>
  <g
     inkscape:groupmode="layer"
     inkscape:label="Image"
     id="g1">
    <g
       id="g4"
       transform="scale(0.03125)">
      <path
         style="fill:#ffffff"
         d="M 256,512 H 0 V 400 288 h 16 16 v 16 16 h 16 16 v 16 16 h 16 16 v 16 16 h 16 16 v 16 16 h 48 48 v 16 16 h 144 144 v 32 32 z M 16,224 H 0 V 112 0 H 256 512 V 32 64 H 368 224 v 16 16 h -48 -48 v 16 16 H 112 96 v 16 16 H 80 64 v 16 16 H 48 32 v 16 16 z"
         id="path7" />
      <path
         style="fill:#90da68"
         d="M 96,224 H 64 v -16 -16 h 16 16 v -16 -16 h 16 16 v -16 -16 h 48 48 V 112 96 h 128 128 v 64 64 h -32 -32 v -16 -16 h -16 -16 v -16 -16 h -32 -32 v 16 16 h 16 16 v 16 16 h -16 -16 v -16 -16 h -48 -48 v 16 16 h -32 -32 v -16 -16 h -16 -16 v 16 16 z m 96,-32 h 32 v -16 -16 h 48 48 v -16 -16 h -48 -48 v 16 16 h -32 -32 v 16 16 z"
         id="path6" />
      <path
         style="fill:#1dbb72"
         d="M 352,416 H 224 V 400 384 H 176 128 V 368 352 H 112 96 V 336 320 H 80 64 V 304 288 H 48 32 v -32 -32 h 32 32 v 32 32 h 16 16 v -32 -32 h 16 16 v 16 16 h 16 16 v 16 16 h 16 16 v -32 -32 h 32 32 v 16 16 h 16 16 v -16 -16 h 32 32 v 16 16 h 16 16 v -16 -16 h 32 32 v 96 96 z m -48,-32 h 80 v -16 -16 h 16 16 v -16 -16 h 16 16 v -16 -16 h -16 -16 v 16 16 h -16 -16 v 16 16 h -80 -80 v -16 -16 h 64 64 v -16 -16 h 16 16 v -16 -16 h -16 -16 v 16 16 h -64 -64 v 16 16 h -32 -32 v -16 -16 h -16 -16 v 16 16 h 16 16 v 16 16 h 32 32 v 16 16 z"
         id="path5" />
      <path
         style="fill:#3d3445"
         d="M 368,448 H 224 V 432 416 H 176 128 V 400 384 H 112 96 V 368 352 H 80 64 V 336 320 H 48 32 V 304 288 H 16 0 v -32 -32 h 16 16 v -16 -16 h 16 16 v -16 -16 h 16 16 v -16 -16 h 16 16 V 112 96 h 48 48 V 80 64 H 368 512 V 256 448 Z M 352,416 H 480 V 256 96 H 352 224 v 16 16 h -48 -48 v 16 16 H 112 96 v 16 16 H 80 64 v 16 16 H 48 32 v 32 32 h 16 16 v 16 16 h 16 16 v 16 16 h 16 16 v 16 16 h 48 48 v 16 16 z M 304,384 H 224 V 368 352 H 192 160 V 336 320 H 144 128 V 304 288 H 112 96 v -32 -32 h 16 16 v -16 -16 h 16 16 v -16 -16 h 32 32 v -16 -16 h 48 48 v 16 16 h 32 32 v 16 16 h 16 16 v 32 32 h -16 -16 v 16 16 h -16 -16 v 16 16 h -64 -64 v 16 16 h 80 80 v -16 -16 h 16 16 v -16 -16 h 16 16 v 16 16 h -16 -16 v 16 16 h -16 -16 v 16 16 z M 192,320 h 32 v -16 -16 h 64 64 v -16 -16 h 16 16 v -16 -16 h -16 -16 v -16 -16 h -16 -16 v -16 -16 h -48 -48 v 16 16 h -32 -32 v 16 16 h -16 -16 v 32 32 h 16 16 v 16 16 z m 16,-32 h -16 v -16 -16 h -16 -16 v -16 -16 h 32 32 v -16 -16 h 48 48 v 32 32 h -16 -16 v -16 -16 h -32 -32 v 32 32 z"
         id="path4" />
    </g>
  </g>
</svg>
