<?xml version="1.0" encoding="UTF-8" standalone="no"?>
<!-- Created with Inkscape (http://www.inkscape.org/) -->

<svg
   version="1.1"
   id="svg1"
   width="16"
   height="16"
   viewBox="0 0 16 16"
   sodipodi:docname="nwg-look.svg"
   inkscape:version="1.4.3 (0d15f75042, 2025-12-25)"
   xmlns:inkscape="http://www.inkscape.org/namespaces/inkscape"
   xmlns:sodipodi="http://sodipodi.sourceforge.net/DTD/sodipodi-0.dtd"
   xmlns="http://www.w3.org/2000/svg"
   xmlns:svg="http://www.w3.org/2000/svg">
  <defs
     id="defs1" />
  <sodipodi:namedview
     id="namedview1"
     pagecolor="#ffffff"
     bordercolor="#000000"
     borderopacity="0.25"
     inkscape:showpageshadow="2"
     inkscape:pageopacity="0.0"
     inkscape:pagecheckerboard="0"
     inkscape:deskcolor="#d1d1d1"
     showgrid="false"
     inkscape:zoom="0.8984375"
     inkscape:cx="256"
     inkscape:cy="256"
     inkscape:window-width="1861"
     inkscape:window-height="1058"
     inkscape:window-x="0"
     inkscape:window-y="0"
     inkscape:window-maximized="1"
     inkscape:current-layer="g1">
    <inkscape:page
       x="0"
       y="0"
       width="16"
       height="16"
       id="page2"
       margin="0"
       bleed="0" />
  </sodipodi:namedview>
  <g
     inkscape:groupmode="layer"
     inkscape:label="Image"
     id="g1">
    <g
       id="g2"
       transform="scale(0.03125)">
      <path
         style="fill:#ffffff"
         d="M 208,512 H 0 V 256 0 h 256 256 v 256 256 h -32 -32 v -16 -16 h 16 16 v -16 -16 h -16 -16 v -16 -16 h 16 16 V 256 96 H 464 448 V 80 64 H 256 64 V 80 96 H 48 32 v 160 160 h 16 16 v 16 16 h 160 160 v 16 16 h 16 16 v 16 16 z M 176,352 h -16 v -16 -16 h 16 16 v 16 16 z m 160,-32 h -16 v -16 -16 h 16 16 v 16 16 z M 176,288 h -16 v -32 -32 h 32 32 v 16 16 h -16 -16 v 16 16 z m 160,-32 h -16 v -16 -16 h 16 16 v 16 16 z"
         id="path6" />
      <path
         style="fill:#8ed2fe"
         d="m 208,320 h -16 v -16 -16 h 16 16 v -16 -16 h 16 16 v -16 -16 h 16 16 v 16 16 h 16 16 v 16 16 h -16 -16 v -16 -16 h -16 -16 v 16 16 h -16 -16 v 16 16 z M 80,160 H 64 V 128 96 h 192 192 v 32 32 H 432 416 V 144 128 H 256 96 v 16 16 z"
         id="path5" />
      <path
         style="fill:#4c9ae5"
         d="M 128,384 H 96 V 368 352 H 80 64 v -96 -96 h 16 16 v -16 -16 h 144 144 v 16 16 h 32 32 v 96 96 h -16 -16 v 16 16 H 400 384 V 288 192 H 256 128 v 80 80 h 16 16 v 16 16 z m 208,0 h -16 v -16 -16 h -16 -16 v -16 -16 h -16 -16 v 16 16 h -16 -16 v -32 -32 h 16 16 v -16 -16 h 16 16 v 32 32 h 16 16 v 16 16 h 16 16 v 16 16 z"
         id="path4" />
      <path
         style="fill:#4c64b3"
         d="m 432,480 h -16 v -16 -16 h -16 -16 v -16 -16 h -16 -16 v -16 -16 h 16 16 v 16 16 h 16 16 v -32 -32 h 16 16 v 32 32 h -16 -16 v 16 16 h 16 16 v 16 16 z M 192,416 H 64 v -32 -32 h 16 16 v 16 16 h 112 112 v 16 16 z"
         id="path3" />
      <path
         style="fill:#3d3445"
         d="M 432,512 H 416 V 496 480 H 400 384 V 464 448 H 224 64 V 432 416 H 48 32 V 256 96 H 48 64 V 80 64 h 192 192 v 16 16 h 16 16 v 160 160 h -16 -16 v 16 16 h 16 16 v 16 16 h -16 -16 v 16 16 z m 0,-32 h 16 v -16 -16 h -16 -16 v -16 -16 h 16 16 V 256 96 H 256 64 v 160 160 h 128 128 v -16 -16 h 16 16 v 16 16 h 16 16 v 16 16 h 16 16 v 16 16 z m -32,-64 h -16 v -16 -16 h -16 -16 v -16 -16 h -16 -16 v 16 16 h -80 -80 v -16 -16 h -16 -16 v -80 -80 h 128 128 v 96 96 h 16 16 v 16 16 z M 176,352 h 16 v -16 -16 h 16 16 v 16 16 h 16 16 v -16 -16 h 16 16 v 16 16 h 16 16 v -16 -16 h 16 16 v -16 -16 h -16 -16 v -16 -16 h 16 16 v -16 -16 h -16 -16 v 16 16 h -16 -16 v -16 -16 h -16 -16 v 16 16 h -16 -16 v -16 -16 h -32 -32 v 32 32 h 16 16 v 16 16 h -16 -16 v 16 16 z m 128,-32 h -16 v -16 -16 h 16 16 v 16 16 z m -96,-32 h -16 v -16 -16 h 16 16 v 16 16 z M 400,160 h -16 v -16 -16 h 16 16 v 16 16 z"
         id="path2" />
    </g>
  </g>
</svg>
