<?xml version="1.0" encoding="UTF-8" standalone="no"?>
<!-- Created with Inkscape (http://www.inkscape.org/) -->

<svg
   version="1.1"
   id="svg1"
   width="16"
   height="16"
   viewBox="0 0 16 16"
   sodipodi:docname="rmpc.svg"
   inkscape:version="1.4.3 (0d15f75042, 2025-12-25)"
   xmlns:inkscape="http://www.inkscape.org/namespaces/inkscape"
   xmlns:sodipodi="http://sodipodi.sourceforge.net/DTD/sodipodi-0.dtd"
   xmlns="http://www.w3.org/2000/svg"
   xmlns:svg="http://www.w3.org/2000/svg">
  <defs
     id="defs1" />
  <sodipodi:namedview
     id="namedview1"
     pagecolor="#ffffff"
     bordercolor="#000000"
     borderopacity="0.25"
     inkscape:showpageshadow="2"
     inkscape:pageopacity="0.0"
     inkscape:pagecheckerboard="0"
     inkscape:deskcolor="#d1d1d1"
     showgrid="false"
     inkscape:zoom="0.75"
     inkscape:cx="256"
     inkscape:cy="256"
     inkscape:window-width="1859"
     inkscape:window-height="1056"
     inkscape:window-x="0"
     inkscape:window-y="0"
     inkscape:window-maximized="1"
     inkscape:current-layer="g1">
    <inkscape:page
       x="0"
       y="0"
       width="16"
       height="16"
       id="page2"
       margin="0"
       bleed="0" />
  </sodipodi:namedview>
  <g
     inkscape:groupmode="layer"
     inkscape:label="Image"
     id="g1">
    <g
       id="g2"
       transform="scale(0.03125)">
      <path
         style="fill:#ffffff"
         d="M 256,512 H 0 v -16 -16 h 256 256 v 16 16 z M 256,32 H 0 V 16 0 h 256 256 v 16 16 z"
         id="path6" />
      <path
         style="fill:#fefefe"
         d="M 112,256 H 96 v -16 -16 h 16 16 v -32 -32 h 48 48 v 32 32 h -16 -16 v 16 16 h -16 -16 v -16 -16 h -16 -16 v 16 16 z m 64,-32 h 16 v -16 -16 h -16 -16 v 16 16 z m 128,32 h -48 v -16 -16 h 48 48 v 16 16 z"
         id="path5" />
      <path
         style="fill:#aa9379"
         d="M 256,416 H 96 v -16 -16 h 160 160 v 16 16 z M 256,96 H 32 V 80 64 h 224 224 v 16 16 z"
         id="path4" />
      <path
         style="fill:#956b6b"
         d="M 256,448 H 32 V 272 96 h 224 224 v 176 176 z m 0,-32 H 416 V 272 128 H 256 96 v 144 144 z"
         id="path3" />
      <path
         style="fill:#3d3445"
         d="M 256,480 H 0 V 256 32 h 256 256 v 224 224 z m 0,-32 H 480 V 256 64 H 256 32 v 192 192 z m 0,-64 H 96 v -64 -64 h 16 16 V 240 224 H 112 96 V 176 128 H 256 416 V 256 384 Z M 176,256 h 16 v -16 -16 h 16 16 v -32 -32 h -48 -48 v 32 32 h 16 16 v 16 16 z m 0,-32 h -16 v -16 -16 h 16 16 v 16 16 z m 128,32 h 48 v -16 -16 h -48 -48 v 16 16 z"
         id="path2" />
    </g>
  </g>
</svg>
