<?xml version="1.0" encoding="UTF-8" standalone="no"?>
<!-- Created with Inkscape (http://www.inkscape.org/) -->

<svg
   version="1.1"
   id="svg1"
   width="16"
   height="16"
   viewBox="0 0 16 16"
   sodipodi:docname="org.vinegarhq.Sober.svg"
   inkscape:version="1.4.3 (0d15f75042, 2025-12-25)"
   xmlns:inkscape="http://www.inkscape.org/namespaces/inkscape"
   xmlns:sodipodi="http://sodipodi.sourceforge.net/DTD/sodipodi-0.dtd"
   xmlns="http://www.w3.org/2000/svg"
   xmlns:svg="http://www.w3.org/2000/svg">
  <defs
     id="defs1" />
  <sodipodi:namedview
     id="namedview1"
     pagecolor="#ffffff"
     bordercolor="#000000"
     borderopacity="0.25"
     inkscape:showpageshadow="2"
     inkscape:pageopacity="0.0"
     inkscape:pagecheckerboard="0"
     inkscape:deskcolor="#d1d1d1"
     showgrid="false"
     inkscape:zoom="0.8984375"
     inkscape:cx="256"
     inkscape:cy="256"
     inkscape:window-width="1861"
     inkscape:window-height="1058"
     inkscape:window-x="0"
     inkscape:window-y="0"
     inkscape:window-maximized="1"
     inkscape:current-layer="g1">
    <inkscape:page
       x="0"
       y="0"
       width="16"
       height="16"
       id="page2"
       margin="0"
       bleed="0" />
  </sodipodi:namedview>
  <g
     inkscape:groupmode="layer"
     inkscape:label="Image"
     id="g1">
    <g
       id="g2"
       transform="scale(0.03125)">
      <path
         style="fill:#fafe85"
         d="M 464,192 H 448 V 160 128 H 400 352 V 112 96 H 304 256 V 80 64 H 208 160 V 80 96 H 144 128 V 80 64 h 16 16 V 48 32 h 48 48 v 16 16 h 48 48 v 16 16 h 48 48 v 16 16 h 16 16 v 32 32 z"
         id="path5" />
      <path
         style="fill:#90da68"
         d="M 304,448 H 256 V 432 416 H 208 160 V 400 384 H 112 64 V 352 320 H 48 32 v -32 -32 h 16 16 v -32 -32 h 16 16 v 16 16 h 32 32 v 16 16 h 16 16 v 32 32 h 32 32 v -16 -16 h 16 16 v 16 16 h 32 32 v 16 16 h 32 32 v 16 16 h -16 -16 v 16 16 h -16 -16 v 16 16 z M 416,320 h -32 v -16 -16 h -32 -32 v -16 -16 h -16 -16 v -32 -32 h -32 -32 v 16 16 H 208 192 V 208 192 H 160 128 V 176 160 H 112 96 v -16 -16 h 16 16 V 112 96 h 16 16 V 80 64 h 48 48 v 16 16 h 48 48 v 16 16 h 48 48 v 32 32 h 16 16 v 32 32 h -16 -16 v 32 32 z"
         id="path4" />
      <path
         style="fill:#1dbb72"
         d="M 304,480 H 256 V 464 448 H 208 160 V 432 416 H 112 64 V 400 384 H 48 32 v -32 -32 h 16 16 v 32 32 h 48 48 v 16 16 h 48 48 v 16 16 h 48 48 v -16 -16 h 16 16 v 16 16 h -16 -16 v 16 16 z"
         id="path3" />
      <path
         style="fill:#3d3445"
         d="M 304,512 H 256 V 496 480 H 208 160 V 464 448 H 112 64 V 432 416 H 48 32 V 400 384 H 16 0 V 320 256 H 16 32 V 224 192 H 48 64 V 160 128 H 80 96 V 96 64 h 16 16 V 48 32 h 16 16 V 16 0 h 48 48 v 16 16 h 48 48 v 16 16 h 48 48 v 16 16 h 16 16 v 16 16 h 16 16 v 64 64 h -16 -16 v 32 32 h -16 -16 v 32 32 h -16 -16 v 32 32 h -16 -16 v 16 16 h -16 -16 v 16 16 z m 0,-32 h 48 v -16 -16 h 16 16 v -32 -32 h 16 16 v -16 -16 h -32 -32 v -16 -16 h -32 -32 v -16 -16 h -16 -16 v 16 16 H 224 192 V 288 256 H 176 160 V 240 224 H 128 96 V 208 192 H 80 64 v 32 32 H 48 32 v 64 64 h 16 16 v 16 16 h 48 48 v 16 16 h 48 48 v 16 16 z M 416,320 h 32 v -32 -32 h 16 16 V 192 128 H 464 448 V 112 96 H 400 352 V 80 64 H 304 256 V 48 32 h -48 -48 v 16 16 h -16 -16 v 32 32 H 112 96 v 16 16 h 16 16 v 16 16 h 32 32 v 16 16 h 16 16 v -16 -16 h 32 32 v 32 32 h 16 16 v 16 16 h 32 32 v 16 16 z"
         id="path2" />
    </g>
  </g>
</svg>
