<?xml version="1.0" encoding="UTF-8"?>
<!-- Generator: visioncortex VTracer -->
<svg id="svg" version="1.1" xmlns="http://www.w3.org/2000/svg" style="display: block;" viewBox="0 0 512 512"><path d="M0,0 L192,0 L192,32 L256,32 L256,64 L288,64 L288,96 L320,96 L320,160 L352,160 L352,352 L320,352 L320,416 L288,416 L288,448 L256,448 L256,480 L192,480 L192,512 L0,512 L0,480 L-64,480 L-64,448 L-96,448 L-96,416 L-128,416 L-128,352 L-160,352 L-160,160 L-128,160 L-128,96 L-96,96 L-96,64 L-64,64 L-64,32 L0,32 Z " transform="translate(160,0)" style="fill: #1EBC73;"/><path d="M0,0 L192,0 L192,32 L0,32 Z M-64,32 L0,32 L0,64 L-64,64 Z M192,32 L256,32 L256,64 L192,64 Z M-96,64 L-64,64 L-64,96 L-96,96 Z M256,64 L288,64 L288,96 L256,96 Z M-128,96 L-96,96 L-96,160 L-128,160 Z M288,96 L320,96 L320,160 L288,160 Z M-160,160 L-128,160 L-128,352 L-160,352 Z M320,160 L352,160 L352,352 L320,352 Z M-128,352 L-96,352 L-96,416 L-128,416 Z M288,352 L320,352 L320,416 L288,416 Z M-96,416 L-64,416 L-64,448 L-96,448 Z M256,416 L288,416 L288,448 L256,448 Z M-64,448 L0,448 L0,480 L-64,480 Z M192,448 L256,448 L256,480 L192,480 Z M0,480 L192,480 L192,512 L0,512 Z " transform="translate(160,0)" style="fill: #3E3546;"/><path d="M0,0 L192,0 L192,32 L256,32 L256,64 L224,64 L224,96 L-32,96 L-32,64 L-64,64 L-64,32 L0,32 Z M-96,64 L-64,64 L-64,96 L-96,96 Z M256,64 L288,64 L288,96 L256,96 Z M-64,96 L-32,96 L-32,128 L-64,128 Z M224,96 L256,96 L256,128 L224,128 Z M-96,128 L-64,128 L-64,160 L-96,160 Z M256,128 L288,128 L288,160 L256,160 Z " transform="translate(160,32)" style="fill: #91DB69;"/><path d="M0,0 L32,0 L32,32 L0,32 Z M352,0 L384,0 L384,32 L352,32 Z M32,32 L96,32 L96,64 L32,64 Z M288,32 L352,32 L352,64 L288,64 Z M96,64 L288,64 L288,96 L96,96 Z " transform="translate(64,384)" style="fill: #0B8A8F;"/><path d="M0,0 L192,0 L192,32 L0,32 Z M-64,32 L0,32 L0,64 L-64,64 Z M192,32 L256,32 L256,64 L192,64 Z M-96,64 L-64,64 L-64,96 L-96,96 Z M256,64 L288,64 L288,96 L256,96 Z " transform="translate(160,224)" style="fill: #000000;"/><path d="M0,0 L192,0 L192,32 L0,32 Z M-64,32 L0,32 L0,64 L-64,64 Z M192,32 L256,32 L256,64 L192,64 Z M-96,64 L-64,64 L-64,96 L-96,96 Z M256,64 L288,64 L288,96 L256,96 Z " transform="translate(160,192)" style="fill: #8FF8E2;"/><path d="M0,0 L256,0 L256,32 L0,32 Z M-32,32 L0,32 L0,64 L-32,64 Z M256,32 L288,32 L288,64 L256,64 Z M-64,64 L-32,64 L-32,96 L-64,96 Z M288,64 L320,64 L320,96 L288,96 Z " transform="translate(128,128)" style="fill: #000000;"/><path d="M0,0 L256,0 L256,32 L0,32 Z M-32,32 L0,32 L0,64 L-32,64 Z M256,32 L288,32 L288,64 L256,64 Z M-64,64 L-32,64 L-32,96 L-64,96 Z M288,64 L320,64 L320,96 L288,96 Z " transform="translate(128,96)" style="fill: #8FF8E2;"/><path d="M0,0 L192,0 L192,32 L0,32 Z M-32,32 L0,32 L0,64 L-32,64 Z M192,32 L224,32 L224,64 L192,64 Z " transform="translate(160,320)" style="fill: #000000;"/><path d="M0,0 L192,0 L192,32 L0,32 Z M-32,32 L0,32 L0,64 L-32,64 Z M192,32 L224,32 L224,64 L192,64 Z " transform="translate(160,288)" style="fill: #8FF8E2;"/><path d="M0,0 L192,0 L192,32 L0,32 Z " transform="translate(160,64)" style="fill: #1EBC73;"/></svg>