<?xml version="1.0" encoding="UTF-8" standalone="no"?>
<!-- Created with Inkscape (http://www.inkscape.org/) -->

<svg
   width="16"
   height="16"
   viewBox="0 0 16 16"
   version="1.1"
   id="svg1"
   xmlns="http://www.w3.org/2000/svg"
   xmlns:svg="http://www.w3.org/2000/svg">
  <defs
     id="defs1" />
  <g
     id="layer1"
     style="display:inline">
    <path
       style="display:inline;fill:#3e3546"
       d="m 2,0 h 12 v 1 h 1 v 1 h 1 v 12 h -1 v 1 h -1 v 1 H 2 V 15 H 1 V 14 H 0 V 2 H 1 V 1 h 1 z"
       id="path1" />
    <path
       style="display:inline;fill:#4d9be6;fill-opacity:1"
       d="M 1,2 V 3 H 2 V 2 h 12 v 1 h 1 V 2 c 0,0 -1,0 -1,0 V 1 H 2 v 1 z"
       id="path2" />
    <path
       style="display:inline;fill:#484a77;fill-opacity:1"
       d="m 1,13 v 1 h 1 v 1 h 12 v -1 h 1 v -1 h -1 v 1 H 2 v -1 z"
       id="path3" />
    <path
       style="display:inline;fill:#4d65b4;fill-opacity:1"
       d="M 1,3 H 2 V 2 h 12 v 1 h 1 v 10 h -1 v 1 H 2 V 13 H 1 Z"
       id="path4" />
    <path
       style="display:inline;fill:#ffffff;fill-opacity:1"
       d="m 4,3 h 8 v 7 h -1 v 1 h -1 v 1 H 9 v 1 H 7 V 12 H 6 V 11 H 5 V 10 H 4 Z"
       id="path5" />
    <path
       style="display:inline;fill:#4d65b4;fill-opacity:1"
       d="m 8,4 h 3 v 5 h -1 v 1 H 9 v 1 H 8 Z"
       id="path6" />
  </g>
</svg>
