<?xml version="1.0" encoding="UTF-8"?>
<svg width="512" height="384" version="1.1" xmlns="http://www.w3.org/2000/svg">
<path d="m64 32h384v224h-64v-32h32v-64h-96v32h-32v64h-224zm32 32v64h32v32h96v-64h-32v-32zm224 0v64h96v-64z" fill="#4d9be6"/>
<path d="m32 0h192v32h-160v256h384v-256h-160v-32h192v320h-448z" fill="#3e3546"/>
<path d="m0 320h32v32h448v-32h32v64h-512z" fill="#3e3546"/>
<path d="m32 320h448v32h-448z" fill="#625565"/>
<path d="m160 256h192v32h-192z" fill="#fff"/>
<path d="m320 160h96v64h-96z" fill="#1ebc73"/>
<path d="m96 64h96v64h-96z" fill="#fbb954"/>
<path d="m288 192h32v32h64v32h-96z" fill="#30e1b9"/>
<path d="m192 96h32v64h-96v-32h64z" fill="#9e4539"/>
<path d="m320 96h96v32h-96z" fill="#fff"/>
<path d="m384 256h64v32h-64z" fill="#fff"/>
<path d="m96 256h64v32h-64z" fill="#966c6c"/>
<path d="m224 0h64v32h-64z" fill="#625565"/>
<path d="m352 256h32v32h-32z" fill="#966c6c"/>
<path d="m64 256h32v32h-32z" fill="#fff"/>
<path d="m384 64h32v32h-32z" fill="#8fd3ff"/>
<path d="m352 64h32v32h-32z" fill="#4d65b4"/>
<path d="m320 64h32v32h-32z" fill="#484a77"/>
</svg>
