<?xml version="1.0" encoding="UTF-8"?>
<svg width="512" height="512" version="1.1" xmlns="http://www.w3.org/2000/svg">
<path d="m256 64h96v32h64v32h32v32h32v96h-128v-32h-32v-32h-32v-32h-32z" fill="#4d9be6"/>
<path d="m160 64h96v96h-32v32h-32v32h-32v32h-128v-96h32v-32h32v-32h64z" fill="#1ebc73"/>
<path d="m32 256h128v32h32v32h32v32h32v64h-32v32h-64v-32h-64v-32h-32v-32h-32z" fill="#fbb954"/>
<path d="m352 256h128v96h-32v32h-32v32h-64v-32h32v-64h-64v-32h32z" fill="#905ea9"/>
<path d="m192 448h32v32h32v-32h32v32h64v32h-192v-32h32z" fill="#3e3546"/>
<path d="m480 160h32v192h-32z" fill="#3e3546"/>
<path d="m0 160h32v192h-32z" fill="#3e3546"/>
<path d="m160 0h192v32h-192z" fill="#3e3546"/>
<path d="m224 224h64v64h-64z" fill="#3e3546"/>
<path d="m320 320h64v64h-32v-32h-32z" fill="#3e3546"/>
<path d="m256 32h96v32h-96z" fill="#8fd3ff"/>
<path d="m160 32h96v32h-96z" fill="#91db69"/>
<path d="m352 448h64v32h-64z" fill="#3e3546"/>
<path d="m288 448h64v32h-64z" fill="#6b3e75"/>
<path d="m96 448h64v32h-64z" fill="#3e3546"/>
<path d="m352 416h64v32h-64z" fill="#6b3e75"/>
<path d="m96 416h64v32h-64z" fill="#cd683d"/>
<path d="m448 352h32v64h-32z" fill="#3e3546"/>
<path d="m32 352h32v64h-32z" fill="#3e3546"/>
<path d="m224 320h64v32h-64z" fill="#4a3f50"/>
<path d="m224 288h64v32h-64z" fill="#625565"/>
<path d="m320 224h32v64h-32z" fill="#3e3546"/>
<path d="m288 224h32v64h-32z" fill="#625565"/>
<path d="m192 224h32v64h-32z" fill="#625565"/>
<path d="m160 224h32v64h-32z" fill="#3e3546"/>
<path d="m224 192h64v32h-64z" fill="#625565"/>
<path d="m224 160h64v32h-64z" fill="#3e3546"/>
<path d="m448 96h32v64h-32z" fill="#3e3546"/>
<path d="m32 96h32v64h-32z" fill="#3e3546"/>
<path d="m352 64h64v32h-64z" fill="#8fd3ff"/>
<path d="m96 64h64v32h-64z" fill="#91db69"/>
<path d="m352 32h64v32h-64z" fill="#3e3546"/>
<path d="m96 32h64v32h-64z" fill="#3e3546"/>
<path d="m224 448h32v32h-32z" fill="#625565"/>
<path d="m160 448h32v32h-32z" fill="#cd683d"/>
<path d="m416 416h32v32h-32z" fill="#3e3546"/>
<path d="m320 416h32v32h-32z" fill="#905ea9"/>
<path d="m288 416h32v32h-32z" fill="#3e3546"/>
<path d="m256 416h32v32h-32z" fill="#4a3f50"/>
<path d="m224 416h32v32h-32z" fill="#3e3546"/>
<path d="m64 416h32v32h-32z" fill="#3e3546"/>
<path d="m416 384h32v32h-32z" fill="#6b3e75"/>
<path d="m320 384h32v32h-32z" fill="#3e3546"/>
<path d="m288 384h32v32h-32z" fill="#625565"/>
<path d="m256 384h32v32h-32z" fill="#3e3546"/>
<path d="m64 384h32v32h-32z" fill="#cd683d"/>
<path d="m320 352h32v32h-32z" fill="#625565"/>
<path d="m288 352h32v32h-32z" fill="#3e3546"/>
<path d="m256 352h32v32h-32z" fill="#905ea9"/>
<path d="m288 320h32v32h-32z" fill="#905ea9"/>
<path d="m288 288h32v32h-32z" fill="#3e3546"/>
<path d="m192 288h32v32h-32z" fill="#3e3546"/>
<path d="m288 192h32v32h-32z" fill="#3e3546"/>
<path d="m192 192h32v32h-32z" fill="#3e3546"/>
<path d="m416 96h32v32h-32z" fill="#8fd3ff"/>
<path d="m64 96h32v32h-32z" fill="#91db69"/>
<path d="m416 64h32v32h-32z" fill="#3e3546"/>
<path d="m64 64h32v32h-32z" fill="#3e3546"/>
</svg>
