<?xml version="1.0" encoding="UTF-8"?>
<svg width="512" height="416" version="1.1" xmlns="http://www.w3.org/2000/svg">
<path d="m0 32h512v352h-512zm32 32v256h448v-256z" fill="#3e3546"/>
<path d="m0 384h512v32h-512z" fill="#625565"/>
<path d="m0 0h512v32h-512z" fill="#625565"/>
<path d="m32 256h448v32h-448z" fill="#966c6c"/>
<path d="m32 192h448v32h-448z" fill="#966c6c"/>
<path d="m32 128h448v32h-448z" fill="#966c6c"/>
<path d="m32 64h448v32h-448z" fill="#966c6c"/>
<path d="m160 288h160v32h-160z" fill="#e3c896"/>
<path d="m384 224h64v32h-64z" fill="#e3c896"/>
<path d="m32 224h64v32h-64z" fill="#e3c896"/>
<path d="m32 96h64v32h-64z" fill="#e3c896"/>
<path d="m448 288h32v32h-32z" fill="#625565"/>
<path d="m416 288h32v32h-32z" fill="#e3c896"/>
<path d="m384 288h32v32h-32z" fill="#625565"/>
<path d="m352 288h32v32h-32z" fill="#e3c896"/>
<path d="m320 288h32v32h-32z" fill="#625565"/>
<path d="m128 288h32v32h-32z" fill="#625565"/>
<path d="m96 288h32v32h-32z" fill="#e3c896"/>
<path d="m64 288h32v32h-32z" fill="#625565"/>
<path d="m32 288h32v32h-32z" fill="#e3c896"/>
<path d="m448 224h32v32h-32z" fill="#625565"/>
<path d="m352 224h32v32h-32z" fill="#625565"/>
<path d="m320 224h32v32h-32z" fill="#e3c896"/>
<path d="m288 224h32v32h-32z" fill="#625565"/>
<path d="m256 224h32v32h-32z" fill="#e3c896"/>
<path d="m224 224h32v32h-32z" fill="#625565"/>
<path d="m192 224h32v32h-32z" fill="#e3c896"/>
<path d="m160 224h32v32h-32z" fill="#625565"/>
<path d="m128 224h32v32h-32z" fill="#e3c896"/>
<path d="m96 224h32v32h-32z" fill="#625565"/>
<path d="m448 160h32v32h-32z" fill="#625565"/>
<path d="m416 160h32v32h-32z" fill="#e3c896"/>
<path d="m384 160h32v32h-32z" fill="#625565"/>
<path d="m352 160h32v32h-32z" fill="#e3c896"/>
<path d="m320 160h32v32h-32z" fill="#625565"/>
<path d="m288 160h32v32h-32z" fill="#e3c896"/>
<path d="m256 160h32v32h-32z" fill="#625565"/>
<path d="m224 160h32v32h-32z" fill="#e3c896"/>
<path d="m192 160h32v32h-32z" fill="#625565"/>
<path d="m160 160h32v32h-32z" fill="#e3c896"/>
<path d="m128 160h32v32h-32z" fill="#625565"/>
<path d="m96 160h32v32h-32z" fill="#e3c896"/>
<path d="m64 160h32v32h-32z" fill="#625565"/>
<path d="m32 160h32v32h-32z" fill="#e3c896"/>
<path d="m448 96h32v32h-32z" fill="#e3c896"/>
<path d="m416 96h32v32h-32z" fill="#625565"/>
<path d="m384 96h32v32h-32z" fill="#e3c896"/>
<path d="m352 96h32v32h-32z" fill="#625565"/>
<path d="m320 96h32v32h-32z" fill="#e3c896"/>
<path d="m288 96h32v32h-32z" fill="#625565"/>
<path d="m256 96h32v32h-32z" fill="#e3c896"/>
<path d="m224 96h32v32h-32z" fill="#625565"/>
<path d="m192 96h32v32h-32z" fill="#e3c896"/>
<path d="m160 96h32v32h-32z" fill="#625565"/>
<path d="m128 96h32v32h-32z" fill="#e3c896"/>
<path d="m96 96h32v32h-32z" fill="#625565"/>
</svg>
