<?xml version="1.0" encoding="UTF-8"?>
<svg width="512" height="448" shape-rendering="crispEdges" version="1.1" viewBox="0 32 512 448" xmlns="http://www.w3.org/2000/svg">
<path transform="translate(0,32)" d="m0 0h512v448h-512zm32 32v288h448v-288zm0 320v64h448v-64z" fill="#3E3546"/>
<path transform="translate(32,192)" d="m0 0h160v160h-160z" fill="#C32454"/>
<path transform="translate(96,384)" d="m0 0h320v64h-352v-32h32z" fill="#fff"/>
<path transform="translate(288,224)" d="m0 0h192v128h-160v-96h-32z" fill="#E3C896"/>
<path transform="translate(128,128)" d="m0 0h64v32h64v-32h96v96h-64v32h-96v-64h-64z" fill="#0B8A8F"/>
<path transform="translate(32,64)" d="m0 0h192v32h-32v32h-64v64h-96z" fill="#1EBC73"/>
<path transform="translate(384,64)" d="m0 0h96v160h-96z" fill="#4D9BE6"/>
<path transform="translate(192,256)" d="m0 0h128v96h-128z" fill="#A884F3"/>
<path transform="translate(224,64)" d="m0 0h160v160h-32v-96h-96v-32h-32z" fill="#6B3E75"/>
<path transform="translate(416,384)" d="m0 0h64v64h-64z" fill="#625565"/>
<path transform="translate(192,96)" d="m0 0h64v64h-64z" fill="#FBB954"/>
<path transform="translate(32,416)" d="m0 0h32v32h-32z" fill="#625565"/>
<path transform="translate(64,384)" d="m0 0h32v32h-32z" fill="#625565"/>
<path transform="translate(32,384)" d="m0 0h32v32h-32z" fill="#fff"/>
</svg>
