<?xml version="1.0" encoding="UTF-8"?>
<svg width="512" height="512" shape-rendering="crispEdges" version="1.1" viewBox="0 0 512 512" xmlns="http://www.w3.org/2000/svg">
<path transform="translate(32,160)" d="m0 0h128v32h320v256h-192v-32h64v-32h32v-32h32v-64h-32v-32h-32v-32h-64v32h-32v32h-64v-32h-32v32h-32v32h-32v32h32v32h32v32h32v32h-160z" fill="#E3C896"/>
<path transform="translate(32,480)" d="m0 0h448v32h-448z" fill="#3E3546"/>
<path transform="translate(32,448)" d="m0 0h448v32h-448z" fill="#AB947A"/>
<path transform="translate(416,96)" d="m0 0h32v64h32v32h-320v-32h256z" fill="#3E3546"/>
<path transform="translate(0,160)" d="m0 0h32v320h-32z" fill="#3E3546"/>
<path transform="translate(96,96)" d="m0 0h320v32h-320z" fill="#fff"/>
<path transform="translate(256,288)" d="m0 0h32v64h64v32h-64v32h-96v-32h32v-32h32z" fill="#AB947A"/>
<path transform="translate(480,192)" d="m0 0h32v288h-32z" fill="#3E3546"/>
<path transform="translate(160,128)" d="m0 0h256v32h-256z" fill="#E3C896"/>
<path transform="translate(128,64)" d="m0 0h256v32h-256z" fill="#E3C896"/>
<path transform="translate(128,32)" d="m0 0h256v32h-256z" fill="#fff"/>
<path transform="translate(128)" d="m0 0h256v32h-256z" fill="#3E3546"/>
<path transform="translate(160,288)" d="m0 0h32v32h32v32h-32v32h-32v-32h-32v-32h32z" fill="#AB947A"/>
<path transform="translate(64,96)" d="m0 0h32v32h64v32h-128v-32h32z" fill="#3E3546"/>
<path transform="translate(288,288)" d="m0 0h64v64h-64z" fill="#3E3546"/>
<path transform="translate(192,416)" d="m0 0h96v32h-96z" fill="#3E3546"/>
<path transform="translate(192,288)" d="m0 0h64v64h-32v-32h-32z" fill="#3E3546"/>
<path transform="translate(288,384)" d="m0 0h64v32h-64z" fill="#3E3546"/>
<path transform="translate(384,288)" d="m0 0h32v64h-32z" fill="#3E3546"/>
<path transform="translate(352,288)" d="m0 0h32v64h-32z" fill="#AB947A"/>
<path transform="translate(288,256)" d="m0 0h64v32h-64z" fill="#AB947A"/>
<path transform="translate(288,224)" d="m0 0h64v32h-64z" fill="#3E3546"/>
<path transform="translate(384,32)" d="m0 0h32v64h-32z" fill="#3E3546"/>
<path transform="translate(96,32)" d="m0 0h32v64h-32z" fill="#3E3546"/>
<path transform="translate(160,384)" d="m0 0h32v32h-32z" fill="#3E3546"/>
<path transform="translate(352,352)" d="m0 0h32v32h-32z" fill="#3E3546"/>
<path transform="translate(192,352)" d="m0 0h32v32h-32z" fill="#3E3546"/>
<path transform="translate(128,352)" d="m0 0h32v32h-32z" fill="#3E3546"/>
<path transform="translate(96,320)" d="m0 0h32v32h-32z" fill="#3E3546"/>
<path transform="translate(128,288)" d="m0 0h32v32h-32z" fill="#3E3546"/>
<path transform="translate(352,256)" d="m0 0h32v32h-32z" fill="#3E3546"/>
<path transform="translate(256,256)" d="m0 0h32v32h-32z" fill="#3E3546"/>
<path transform="translate(160,256)" d="m0 0h32v32h-32z" fill="#3E3546"/>
</svg>
